<?xml version="1.0" standalone="no"?>
<!DOCTYPE svg PUBLIC "-//W3C//DTD SVG 20010904//EN"
 "http://www.w3.org/TR/2001/REC-SVG-20010904/DTD/svg10.dtd">
<svg version="1.0" xmlns="http://www.w3.org/2000/svg"
 width="284.000000pt" height="284.000000pt" viewBox="0 0 284.000000 284.000000"
 preserveAspectRatio="xMidYMid meet">
<metadata>
Created by potrace 1.14, written by Peter Selinger 2001-2017
</metadata>
<g transform="translate(0.000000,284.000000) scale(0.100000,-0.100000)"
fill="#000000" stroke="none">
<path d="M363 2809 c-171 -28 -307 -168 -332 -341 -13 -85 -13 -2025 0 -2102
26 -156 131 -274 294 -328 32 -10 244 -13 1075 -13 569 0 1056 3 1082 7 141
21 264 130 314 278 18 52 19 106 19 1095 0 572 -3 1059 -7 1082 -26 155 -166
291 -329 322 -67 12 -2041 12 -2116 0z"/>
</g>
</svg>
